<?xml version="1.0" encoding="UTF-8"?>
<!DOCTYPE svg PUBLIC "-//W3C//DTD SVG 1.1//EN" "http://www.w3.org/Graphics/SVG/1.1/DTD/svg11.dtd">
<!-- Creator: CorelDRAW X5 -->
<svg xmlns="http://www.w3.org/2000/svg" xml:space="preserve" width="99.624mm" height="26.0496mm" style="shape-rendering:geometricPrecision; text-rendering:geometricPrecision; image-rendering:optimizeQuality; fill-rule:evenodd; clip-rule:evenodd"
viewBox="0 0 766168 200337"
 xmlns:xlink="http://www.w3.org/1999/xlink">
 <defs>
  <style type="text/css">
   <![CDATA[
    .fil2 {fill:white;fill-rule:nonzero}
    .fil1 {fill:url(#id4)}
    .fil0 {fill:url(#id5)}
   ]]>
  </style>
  <mask id="id0">
  <linearGradient id="id1" gradientUnits="userSpaceOnUse" x1="1.15385e+006" y1="-846552" x2="1.15385e+006" y2="-1.14598e+006">
   <stop offset="0" style="stop-opacity:0; stop-color:white"/>
   <stop offset="1" style="stop-opacity:1; stop-color:white"/>
  </linearGradient>
   <rect style="fill:url(#id1)" x="1004733" y="-1146001" width="298228" height="299468"/>
  </mask>
  <mask id="id2">
  <linearGradient id="id3" gradientUnits="userSpaceOnUse" x1="234664" y1="-607643" x2="234664" y2="-1.14598e+006">
   <stop offset="0" style="stop-opacity:0; stop-color:white"/>
   <stop offset="1" style="stop-opacity:1; stop-color:white"/>
  </linearGradient>
   <rect style="fill:url(#id3)" x="-33494" y="-1146001" width="536316" height="538376"/>
  </mask>
  <linearGradient id="id4" gradientUnits="userSpaceOnUse" x1="234664" y1="-607643" x2="234664" y2="-1.14598e+006">
   <stop offset="0" style="stop-color:white"/>
   <stop offset="1" style="stop-color:#E3E3E3"/>
  </linearGradient>
  <linearGradient id="id5" gradientUnits="userSpaceOnUse" xlink:href="#id4" x1="1.15385e+006" y1="-846552" x2="1.15385e+006" y2="-1.14598e+006">
  </linearGradient>
 </defs>
<symbol id="Fm0-208-0" viewBox="1004753 -1145981 298188 299428">
 <polygon class="fil0" style="mask:url(#id0)" points="1004753,-1145981 1302942,-847380 1004759,-846553 "/>
</symbol>
<symbol id="Fm1-214-0" viewBox="-33474 -1145981 536277 538336">
 <polygon class="fil1" style="mask:url(#id2)" points="-33474,-607645 502803,-607645 -33273,-1145981 "/>
</symbol>
 <g id="Camada_x0020_1">
  <metadata id="CorelCorpID_0Corel-Layer"/>
  <polygon class="fil2" points="178359,148253 178359,105502 187438,105502 187438,148253 "/>
  <path class="fil2" d="M236272 148253l-11539 0 -18638 -32341 -259 0c369,5709 560,9782 560,12217l0 20123 -8119 0 0 -42751 11458 0 18598 32021 200 0c-290,-5560 -440,-9483 -440,-11789l0 -20232 8179 0 0 42751z"/>
  <path id="1" class="fil2" d="M272449 136385c0,3853 -1390,6897 -4170,9123 -2779,2216 -6659,3334 -11618,3334 -4570,0 -8609,-858 -12129,-2576l0 -8424c2889,1287 5340,2196 7339,2715 2000,529 3840,799 5500,799 1990,0 3519,-380 4580,-1148 1069,-758 1599,-1887 1599,-3394 0,-828 -239,-1577 -709,-2236 -460,-649 -1151,-1278 -2060,-1887 -910,-599 -2759,-1567 -5549,-2895 -2620,-1228 -4580,-2406 -5889,-3534 -1310,-1127 -2350,-2446 -3139,-3952 -781,-1497 -1171,-3255 -1171,-5260 0,-3783 1290,-6758 3850,-8924 2569,-2156 6119,-3244 10648,-3244 2230,0 4350,270 6379,789 2020,528 4130,1267 6339,2226l-2930 7047c-2289,-938 -4179,-1587 -5669,-1956 -1490,-369 -2960,-559 -4410,-559 -1720,0 -3039,400 -3949,1198 -920,798 -1380,1847 -1380,3134 0,799 179,1497 559,2086 371,599 960,1167 1770,1727 810,559 2729,1557 5749,2995 4009,1916 6748,3833 8238,5749 1480,1916 2220,4272 2220,7067z"/>
  <polygon class="fil2" points="296713,148253 287634,148253 287634,113048 276005,113048 276005,105502 308352,105502 308352,113048 296713,113048 "/>
  <polygon id="1" class="fil2" points="315001,148253 315001,105502 324080,105502 324080,148253 "/>
  <polygon id="12" class="fil2" points="351437,148253 342358,148253 342358,113048 330729,113048 330729,105502 363076,105502 363076,113048 351437,113048 "/>
  <path class="fil2" d="M404425 105502l0 27659c0,3164 -700,5929 -2120,8304 -1420,2386 -3460,4202 -6139,5470 -2670,1267 -5839,1906 -9489,1906 -5510,0 -9789,-1417 -12829,-4232 -3049,-2815 -4570,-6668 -4570,-11559l0 -27549 9049 0 0 26172c0,3294 661,5709 1990,7247 1330,1547 3530,2316 6589,2316 2969,0 5129,-779 6459,-2326 1340,-1547 2010,-3983 2010,-7297l0 -26112 9049 0z"/>
  <polygon class="fil2" points="431849,148253 422769,148253 422769,113048 411140,113048 411140,105502 443488,105502 443488,113048 431849,113048 "/>
  <path class="fil2" d="M489001 126823c0,7077 -1760,12507 -5279,16310 -3510,3803 -8550,5709 -15108,5709 -6569,0 -11599,-1906 -15118,-5709 -3520,-3803 -5270,-9253 -5270,-16370 0,-7117 1760,-12556 5280,-16309 3529,-3754 8579,-5630 15168,-5630 6579,0 11608,1897 15098,5680 3479,3783 5229,9223 5229,16320zm-31256 0c0,4771 910,8364 2719,10790 1820,2416 4530,3624 8150,3624 7239,0 10868,-4811 10868,-14414 0,-9632 -3609,-14454 -10808,-14454 -3620,0 -6339,1218 -8180,3644 -1830,2426 -2749,6029 -2749,10810z"/>
  <polygon id="1" class="fil2" points="522398,148253 513459,148253 513459,105502 538006,105502 538006,112928 522398,112928 522398,123948 536926,123948 536926,131355 522398,131355 "/>
  <polygon class="fil2" points="571245,148253 546578,148253 546578,105502 571245,105502 571245,112928 555657,112928 555657,122311 570155,122311 570155,129737 555657,129737 555657,140767 571245,140767 "/>
  <path id="1" class="fil2" d="M615769 126463c0,7037 -2010,12427 -6019,16170 -4020,3743 -9809,5620 -17388,5620l-12128 0 0 -42751 13448 0c6990,0 12419,1837 16289,5530 3860,3684 5799,8824 5799,15432zm-9439 239c0,-9183 -4060,-13775 -12180,-13775l-4838 0 0 27839 3898 0c8750,0 13119,-4691 13119,-14065z"/>
  <polygon id="12" class="fil2" points="649366,148253 624699,148253 624699,105502 649366,105502 649366,112928 633778,112928 633778,122311 648276,122311 648276,129737 633778,129737 633778,140767 649366,140767 "/>
  <path id="123" class="fil2" d="M667434 124477l2929 0c2870,0 4990,-479 6359,-1427 1370,-958 2050,-2456 2050,-4511 0,-2026 -701,-3464 -2090,-4322 -1400,-859 -3559,-1288 -6489,-1288l-2759 0 0 11549zm0 7367l0 16409 -9080 0 0 -42751 12478 0c5819,0 10129,1058 12919,3174 2789,2116 4191,5320 4191,9632 0,2516 -691,4751 -2080,6708 -1390,1966 -3350,3494 -5889,4611 6449,9612 10649,15821 12599,18626l-10079 0 -10219 -16409 -4838 0z"/>
  <path class="fil2" d="M723975 148253l-3100 -10182 -15618 0 -3100 10182 -9789 0 15118 -42931 11099 0 15178 42931 -9789 0zm-5270 -17778c-2869,-9223 -4490,-14443 -4850,-15651 -359,-1207 -620,-2156 -779,-2865 -641,2496 -2490,8664 -5530,18516l11159 0z"/>
  <polygon class="fil2" points="739712,148253 739712,105502 748790,105502 748790,140767 766168,140767 766168,148253 "/>
  <path class="fil2" d="M193220 199882l-11204 -29228 -177 0c208,2317 316,5065 316,8252l0 20976 -3548 0 0 -32969 5784 0 10456 27195 185 0 10548 -27195 5737 0 0 32969 -3840 0 0 -21245c0,-2433 108,-5080 316,-7937l-177 0 -11297 29182 -3099 0z"/>
  <path id="1" class="fil2" d="M235037 199882l-740 -3518 -185 0c-1234,1547 -2467,2594 -3694,3149 -1226,546 -2760,824 -4595,824 -2453,0 -4380,-631 -5776,-1902 -1388,-1262 -2090,-3055 -2090,-5388 0,-4988 4001,-7605 11998,-7844l4202 -139 0 -1531c0,-1940 -416,-3372 -1257,-4296 -833,-924 -2166,-1385 -4009,-1385 -2060,0 -4396,631 -7002,1893l-1149 -2863c1218,-662 2553,-1186 4010,-1555 1450,-378 2907,-570 4372,-570 2945,0 5136,654 6562,1963 1418,1309 2136,3410 2136,6297l0 16865 -2784 0zm-8467 -2640c2329,0 4164,-639 5498,-1916 1334,-1278 1997,-3064 1997,-5366l0 -2232 -3748 154c-2984,108 -5136,569 -6446,1393 -1319,816 -1982,2094 -1982,3818 0,1355 409,2386 1234,3095 818,700 1966,1054 3446,1054z"/>
  <path id="12" class="fil2" d="M253544 197242c664,0 1304,-46 1921,-146 616,-100 1102,-201 1464,-301l0 2864c-408,192 -1002,354 -1797,485 -787,123 -1504,193 -2136,193 -4789,0 -7179,-2525 -7179,-7559l0 -14703 -3547 0 0 -1801 3547 -1563 1580 -5273 2167 0 0 5727 7186 0 0 2909 -7186 0 0 14548c0,1486 355,2625 1064,3425 709,793 1680,1194 2914,1194z"/>
  <path id="123" class="fil2" d="M283246 187504c0,4026 -1017,7175 -3045,9437 -2036,2263 -4842,3395 -8429,3395 -2212,0 -4178,-524 -5899,-1563 -1712,-1032 -3038,-2525 -3971,-4465 -941,-1940 -1404,-4211 -1404,-6805 0,-4034 1010,-7174 3031,-9422 2012,-2248 4819,-3372 8397,-3372 3470,0 6215,1154 8257,3456 2044,2302 3062,5412 3062,9337zm-18860 0c0,3156 631,5558 1897,7213 1264,1655 3123,2479 5583,2479 2452,0 4318,-824 5590,-2463 1273,-1647 1906,-4057 1906,-7228 0,-3148 -633,-5534 -1906,-7166 -1272,-1624 -3154,-2440 -5636,-2440 -2460,0 -4311,801 -5560,2409 -1250,1609 -1873,4010 -1873,7197z"/>
  <path id="1234" class="fil2" d="M316935 182609l11227 0 0 16035c-1750,554 -3523,977 -5336,1262 -1804,285 -3901,431 -6277,431 -5004,0 -8890,-1486 -11682,-4457 -2783,-2971 -4179,-7128 -4179,-12486 0,-3425 694,-6427 2066,-9006 1380,-2579 3362,-4550 5953,-5912 2590,-1355 5629,-2040 9106,-2040 3524,0 6808,647 9846,1940l-1487 3388c-2985,-1263 -5853,-1894 -8606,-1894 -4024,0 -7164,1194 -9423,3580 -2259,2393 -3385,5711 -3385,9945 0,4457 1087,7829 3262,10130 2175,2302 5374,3449 9592,3449 2283,0 4519,-262 6709,-785l0 -10153 -7387 0 0 -3426z"/>
  <path id="12345" class="fil2" d="M346815 174711c1102,0 2090,92 2961,277l-517 3472c-1025,-231 -1927,-338 -2714,-338 -1997,0 -3717,808 -5136,2433 -1427,1624 -2136,3648 -2136,6066l0 13263 -3748 0 0 -24717 3092 0 432 4580 178 0c917,-1609 2028,-2848 3323,-3725 1296,-870 2714,-1309 4264,-1309z"/>
  <path id="123456" class="fil2" d="M374852 187504c0,4026 -1017,7175 -3045,9437 -2036,2263 -4842,3395 -8429,3395 -2212,0 -4178,-524 -5899,-1563 -1712,-1032 -3038,-2525 -3971,-4465 -941,-1940 -1404,-4211 -1404,-6805 0,-4034 1010,-7174 3031,-9422 2012,-2248 4819,-3372 8397,-3372 3470,0 6215,1154 8257,3456 2044,2302 3062,5412 3062,9337zm-18860 0c0,3156 631,5558 1897,7213 1264,1655 3123,2479 5583,2479 2452,0 4318,-824 5590,-2463 1273,-1647 1906,-4057 1906,-7228 0,-3148 -633,-5534 -1906,-7166 -1272,-1624 -3154,-2440 -5636,-2440 -2460,0 -4311,801 -5560,2409 -1250,1609 -1873,4010 -1873,7197z"/>
  <path id="1234567" class="fil2" d="M397399 193139c0,2302 -856,4072 -2576,5319 -1720,1255 -4125,1879 -7233,1879 -3277,0 -5837,-524 -7680,-1563l0 -3472c1195,600 2467,1077 3831,1424 1366,347 2676,516 3941,516 1959,0 3462,-308 4519,-931 1057,-624 1580,-1578 1580,-2856 0,-962 -416,-1786 -1249,-2471 -841,-684 -2467,-1493 -4897,-2424 -2306,-855 -3941,-1601 -4912,-2240 -971,-639 -1697,-1363 -2166,-2179 -478,-808 -709,-1778 -709,-2909 0,-2017 818,-3603 2459,-4765 1643,-1170 3894,-1755 6755,-1755 2668,0 5267,547 7819,1624l-1334 3049c-2491,-1024 -4743,-1532 -6755,-1532 -1781,0 -3122,277 -4024,831 -902,554 -1357,1324 -1357,2301 0,662 169,1224 509,1694 339,461 887,908 1643,1324 748,424 2196,1031 4333,1832 2938,1063 4920,2140 5953,3225 1033,1077 1550,2440 1550,4080z"/>
  <path id="12345678" class="fil2" d="M419467 193139c0,2302 -856,4072 -2576,5319 -1720,1255 -4125,1879 -7233,1879 -3277,0 -5837,-524 -7680,-1563l0 -3472c1195,600 2467,1077 3831,1424 1366,347 2676,516 3941,516 1959,0 3462,-308 4519,-931 1057,-624 1580,-1578 1580,-2856 0,-962 -416,-1786 -1249,-2471 -841,-684 -2467,-1493 -4897,-2424 -2306,-855 -3941,-1601 -4912,-2240 -971,-639 -1697,-1363 -2166,-2179 -478,-808 -709,-1778 -709,-2909 0,-2017 818,-3603 2459,-4765 1643,-1170 3894,-1755 6755,-1755 2668,0 5267,547 7819,1624l-1334 3049c-2491,-1024 -4743,-1532 -6755,-1532 -1781,0 -3122,277 -4024,831 -902,554 -1357,1324 -1357,2301 0,662 169,1224 509,1694 339,461 887,908 1643,1324 748,424 2196,1031 4333,1832 2938,1063 4920,2140 5953,3225 1033,1077 1550,2440 1550,4080z"/>
  <path id="123456789" class="fil2" d="M446934 187504c0,4026 -1017,7175 -3045,9437 -2036,2263 -4842,3395 -8429,3395 -2212,0 -4178,-524 -5899,-1563 -1712,-1032 -3038,-2525 -3971,-4465 -941,-1940 -1404,-4211 -1404,-6805 0,-4034 1010,-7174 3031,-9422 2012,-2248 4819,-3372 8397,-3372 3470,0 6215,1154 8257,3456 2044,2302 3062,5412 3062,9337zm-18860 0c0,3156 631,5558 1897,7213 1264,1655 3123,2479 5583,2479 2452,0 4318,-824 5590,-2463 1273,-1647 1906,-4057 1906,-7228 0,-3148 -633,-5534 -1906,-7166 -1272,-1624 -3154,-2440 -5636,-2440 -2460,0 -4311,801 -5560,2409 -1250,1609 -1873,4010 -1873,7197z"/>
  <path class="fil2" d="M96696 40940c0,2311 -1875,4186 -4181,4186l-34613 0c-2309,0 -4181,-1875 -4181,-4186l0 -34608c0,-2309 1872,-4181 4181,-4181l34613 0c2306,0 4181,1872 4181,4181l0 34608z"/>
  <path class="fil2" d="M148260 40940c0,2311 -1875,4186 -4181,4186l-34608 0c-2314,0 -4186,-1875 -4186,-4186l0 -34608c0,-2309 1872,-4181 4186,-4181l34608 0c2306,0 4181,1872 4181,4181l0 34608z"/>
  <path class="fil2" d="M148260 144074c0,2311 -1875,4186 -4181,4186l-34608 0c-2314,0 -4186,-1875 -4186,-4186l0 -34608c0,-2309 1872,-4181 4186,-4181l34608 0c2306,0 4181,1872 4181,4181l0 34608z"/>
  <path class="fil2" d="M45126 92478c0,2306 -1874,4181 -4181,4181l-34613 0c-2304,0 -4181,-1875 -4181,-4181l0 -34614c0,-2309 1877,-4181 4181,-4181l34613 0c2306,0 4181,1872 4181,4181l0 34614z"/>
  <path class="fil2" d="M96696 92478c0,2306 -1875,4181 -4181,4181l-34613 0c-2309,0 -4181,-1875 -4181,-4181l0 -34614c0,-2309 1872,-4181 4181,-4181l34613 0c2306,0 4181,1872 4181,4181l0 34614z"/>
  <path class="fil2" d="M45126 144074c0,2311 -1874,4186 -4181,4186l-34613 0c-2304,0 -4181,-1875 -4181,-4186l0 -34608c0,-2309 1877,-4181 4181,-4181l34613 0c2306,0 4181,1872 4181,4181l0 34608z"/>
  <path class="fil2" d="M96696 144074c0,2311 -1875,4186 -4181,4186l-34613 0c-2309,0 -4181,-1875 -4181,-4186l0 -34608c0,-2309 1872,-4181 4181,-4181l34613 0c2306,0 4181,1872 4181,4181l0 34608z"/>
  <path class="fil2" d="M45126 195696c0,2311 -1874,4181 -4181,4181l-34613 0c-2304,0 -4181,-1870 -4181,-4181l0 -34608c0,-2309 1877,-4181 4181,-4181l34613 0c2306,0 4181,1872 4181,4181l0 34608z"/>
  <path class="fil2" d="M96696 195696c0,2311 -1875,4181 -4181,4181l-34613 0c-2309,0 -4181,-1870 -4181,-4181l0 -34608c0,-2309 1872,-4181 4181,-4181l34613 0c2306,0 4181,1872 4181,4181l0 34608z"/>
  <path class="fil2" d="M47278 23639c0,13052 -10581,23634 -23634,23634 -13055,0 -23644,-10581 -23644,-23634 0,-13055 10589,-23639 23644,-23639 13052,0 23634,10584 23634,23639z"/>
 </g>
</svg>
