<svg width="500" height="500" viewBox="0 0 500 500" fill="none" xmlns="http://www.w3.org/2000/svg">
<path fill-rule="evenodd" clip-rule="evenodd" d="M80 495.911C82.224 473.838 83.8542 451.62 87.2604 429.693C88.5938 421.099 94.0729 413.104 97.776 405.104C104.297 391.177 110.964 377.401 117.63 363.625C107.406 354.588 96.7396 346.146 87.4062 336.515C74.9635 323.922 80.151 304.219 96.5938 300.37C104.146 298.594 110.667 301.406 116.443 306.588C122.813 312.515 129.333 318 136.443 324.219C141.182 314 145.479 304.963 149.776 295.927C165.771 262.297 181.771 228.818 197.474 195.193C198.661 192.823 198.365 188.969 197.177 186.453C183.547 154.604 193.177 122.901 222.953 106.901C231.099 102.604 234.359 97.7186 233.474 88.8279C233.177 86.4582 233.323 83.9425 233.323 81.8644C232.432 81.2759 231.99 80.6821 231.547 80.6821C218.807 79.3488 218.953 79.3488 219.25 65.4217C219.547 52.8332 219.104 40.0936 219.104 27.4998C219.25 12.3904 227.844 3.35399 242.505 3.05711C248.583 2.91128 254.802 3.05711 261.026 3.35399C271.542 3.94774 280.135 10.9061 280.578 21.5727C281.318 40.6821 280.729 59.7915 280.729 79.6457C276.578 80.0884 272.729 80.6821 267.396 81.2759C267.396 86.3123 267.693 91.4946 267.245 96.5311C266.948 100.974 268.875 102.604 272.578 104.234C294.505 113.422 306.802 130.453 309.021 154.156C311.391 178.453 301.76 197.708 281.911 210.896C271.245 218.151 259.099 221.411 245.917 220.078C243.25 219.932 238.802 221.562 237.766 223.781C218.51 263.187 199.698 302.885 180.88 342.588C180.141 344.068 179.401 345.401 177.771 349.255C192.141 352.958 206.807 358.14 221.177 360.364C254.656 365.698 287.688 361.995 319.391 349.552C343.833 339.922 364.719 324.661 383.833 306.739C397.313 294 415.979 299.927 419.828 318C421.755 326.739 417.604 333.255 411.682 339.031C381.016 368.213 345.609 388.51 304.724 398.583C258.063 410.14 212.438 406.583 167.698 389.844C165.328 389.104 163.104 388.213 159.995 387.031C151.401 404.953 143.109 422.583 134.219 440.062C131.255 445.989 127.406 451.765 122.812 456.359C109.333 470.135 95.4063 483.318 81.6302 496.651C81.0365 496.354 80.5937 496.057 80 495.911ZM223.693 160.229C223.693 175.047 235.547 187.193 249.766 187.041C264.875 186.896 276.729 175.047 276.875 160.229C277.026 144.974 265.026 132.677 249.766 132.531C235.844 132.234 223.547 145.416 223.693 160.229Z" fill="url(#paint0_linear_13_28)"/>
<path fill-rule="evenodd" clip-rule="evenodd" d="M418.495 496.788C398.943 471.647 371.833 454.496 360.427 420.698C357.016 410.044 352.276 400.052 348.13 389.896C362.057 381.239 375.682 372.751 389.906 363.924C397.609 382.076 405.609 400.222 413.161 418.538C414.792 422.53 414.495 427.523 414.938 432.188C417.016 453.167 418.792 474.311 420.719 495.454C419.979 495.787 419.234 496.285 418.495 496.788Z" fill="url(#paint1_linear_13_28)"/>
<path d="M359.359 186.666C340.245 204.587 319.359 219.848 294.917 229.478C288.177 232.123 269.339 236.859 269.339 236.859L288.359 276.166C326.861 265.657 357.966 246.784 387.208 218.957C393.13 213.181 397.281 206.666 395.354 197.926C391.505 179.853 372.839 173.926 359.359 186.666Z" fill="url(#paint2_linear_13_28)"/>
<path d="M315.833 334.588C330.057 326.146 343.536 318.292 357.312 310C341.924 277.556 331.257 255.09 317.692 226.359L269.859 237.905C284.518 268.555 299.725 300.754 315.833 334.588Z" fill="url(#paint3_linear_13_28)"/>
<defs>
<linearGradient id="paint0_linear_13_28" x1="250.359" y1="3" x2="250.359" y2="496.788" gradientUnits="userSpaceOnUse">
<stop stop-color="#38B6FF"/>
<stop offset="1" stop-color="#226D99"/>
</linearGradient>
<linearGradient id="paint1_linear_13_28" x1="250.359" y1="3" x2="250.359" y2="496.788" gradientUnits="userSpaceOnUse">
<stop stop-color="#38B6FF"/>
<stop offset="1" stop-color="#226D99"/>
</linearGradient>
<linearGradient id="paint2_linear_13_28" x1="250.359" y1="3" x2="250.359" y2="496.788" gradientUnits="userSpaceOnUse">
<stop stop-color="#38B6FF"/>
<stop offset="1" stop-color="#226D99"/>
</linearGradient>
<linearGradient id="paint3_linear_13_28" x1="250.359" y1="3" x2="250.359" y2="496.788" gradientUnits="userSpaceOnUse">
<stop stop-color="#38B6FF"/>
<stop offset="1" stop-color="#226D99"/>
</linearGradient>
</defs>
</svg>
