<?xml version="1.0" standalone="no"?>
<!DOCTYPE svg PUBLIC "-//W3C//DTD SVG 20010904//EN"
 "http://www.w3.org/TR/2001/REC-SVG-20010904/DTD/svg10.dtd">
<svg version="1.0" xmlns="http://www.w3.org/2000/svg"
 width="500.000000pt" height="500.000000pt" viewBox="0 0 500.000000 500.000000"
 preserveAspectRatio="xMidYMid meet">
<metadata>
Created by potrace 1.14, written by Peter Selinger 2001-2017
</metadata>
<g transform="translate(0.000000,500.000000) scale(0.100000,-0.100000)"
fill="#000000" stroke="none">
<path d="M1333 4912 c-90 -32 -164 -100 -212 -195 -26 -53 -295 -826 -346
-997 -1 -3 -5 -12 -8 -20 -3 -8 -16 -44 -28 -80 -38 -113 -193 -570 -344
-1015 -81 -236 -150 -443 -155 -460 -5 -16 -45 -136 -90 -265 -117 -337 -141
-417 -145 -492 -10 -159 65 -285 215 -359 36 -18 166 -67 290 -110 124 -42
331 -114 460 -159 129 -45 260 -90 290 -100 30 -10 154 -53 275 -95 121 -42
229 -79 240 -82 11 -3 34 -11 52 -19 17 -8 37 -14 45 -14 8 0 18 -4 24 -8 5
-5 29 -14 54 -21 25 -7 54 -17 65 -21 19 -8 114 -41 380 -134 318 -110 406
-121 530 -65 17 8 35 17 40 21 80 60 126 123 170 233 15 38 28 74 30 80 1 5 4
17 7 25 3 8 16 44 28 80 12 36 26 74 30 85 5 11 17 47 28 80 11 33 41 121 67
195 26 74 48 140 49 145 2 6 9 24 15 40 7 17 14 37 16 45 2 8 34 101 71 205
36 105 88 253 114 330 85 246 196 565 260 745 33 96 63 182 65 190 5 20 174
509 185 535 5 11 25 70 46 130 20 61 42 124 49 140 48 109 61 262 30 350 -23
66 -86 147 -144 184 -46 30 -162 81 -224 100 -18 5 -151 51 -297 101 -146 50
-317 109 -380 130 -63 21 -227 78 -365 125 -137 48 -261 91 -275 95 -14 5
-164 56 -335 115 -447 153 -542 185 -612 205 -85 24 -195 24 -260 2z"/>
<path d="M158 4497 c-110 -57 -64 -207 64 -207 43 0 54 4 84 34 28 28 34 42
34 76 0 34 -6 48 -34 76 -19 19 -42 34 -52 35 -11 0 -27 2 -36 4 -10 2 -36 -7
-60 -18z m93 -83 c11 -14 10 -18 -6 -30 -10 -8 -22 -14 -25 -14 -3 0 -15 6
-25 14 -16 12 -17 16 -6 30 7 9 21 16 31 16 10 0 24 -7 31 -16z"/>
<path d="M4589 4378 c-31 -34 -130 -156 -171 -213 -53 -73 -56 -95 -20 -133
17 -18 39 -32 51 -32 31 0 274 153 314 198 16 18 17 23 4 53 -20 48 -121 149
-148 149 -5 0 -18 -10 -30 -22z"/>
<path d="M475 4109 l-35 -31 -32 23 c-44 32 -56 32 -75 2 -17 -25 -16 -26 19
-58 34 -32 35 -34 17 -52 -10 -10 -21 -30 -24 -45 -5 -21 -2 -29 15 -38 19
-10 26 -8 55 20 l33 32 36 -27 c39 -29 58 -28 76 5 10 18 6 25 -23 53 l-35 31
25 33 c16 21 22 39 18 52 -10 32 -33 32 -70 0z"/>
<path d="M4860 4130 c-78 -22 -380 -161 -400 -184 -29 -36 -14 -116 27 -143
20 -13 45 -15 161 -9 75 3 151 8 167 10 17 2 58 7 93 11 84 10 95 22 87 99 -9
81 -24 133 -53 178 -26 40 -44 48 -82 38z"/>
<path d="M3780 525 c-11 -13 -10 -22 3 -50 l17 -35 -39 -20 c-45 -22 -52 -36
-38 -68 9 -19 15 -22 41 -16 17 4 40 13 52 21 20 13 22 11 34 -17 13 -32 44
-55 60 -45 23 14 29 42 14 69 -17 34 -14 39 31 60 38 18 44 40 21 72 -14 19
-15 18 -59 -3 l-46 -22 -20 34 c-22 38 -50 45 -71 20z"/>
<path d="M3452 290 c-81 -34 -109 -135 -53 -191 64 -64 181 -18 194 77 5 35
-9 77 -31 97 -22 20 -81 29 -110 17z m58 -100 c0 -23 -37 -47 -52 -32 -15 15
9 52 32 52 13 0 20 -7 20 -20z"/>
</g>
</svg>
